<?xml version="1.0" standalone="no"?>
<!DOCTYPE svg PUBLIC "-//W3C//DTD SVG 20010904//EN"
 "http://www.w3.org/TR/2001/REC-SVG-20010904/DTD/svg10.dtd">
<svg version="1.0" xmlns="http://www.w3.org/2000/svg"
 width="800.000000pt" height="800.000000pt" viewBox="0 0 800.000000 800.000000"
 preserveAspectRatio="xMidYMid meet">
<metadata>
Created by potrace 1.14, written by Peter Selinger 2001-2017
</metadata>
<g transform="translate(0.000000,800.000000) scale(0.100000,-0.100000)"
fill="#000000" stroke="none">
<path d="M2346 5829 c-9 -13 -16 -20 -16 -16 0 4 -17 -12 -37 -35 -21 -23 -50
-55 -65 -70 -16 -15 -28 -32 -28 -38 0 -6 -4 -9 -9 -6 -5 3 -15 -2 -22 -11
-12 -14 -12 -16 1 -8 8 4 6 -1 -5 -12 -11 -11 -23 -18 -28 -16 -4 2 -6 -1 -5
-9 2 -7 -3 -12 -10 -10 -8 1 -11 -2 -7 -8 3 -5 -1 -13 -9 -16 -8 -3 -18 -14
-21 -24 -3 -10 -19 -27 -35 -37 -15 -10 -30 -22 -32 -28 -2 -5 -6 -9 -10 -7
-5 1 -8 -4 -8 -11 0 -7 -9 -19 -20 -27 -11 -8 -20 -21 -20 -29 0 -8 -3 -12 -6
-8 -8 8 -34 -18 -34 -33 0 -6 -5 -8 -10 -5 -6 3 -13 -2 -17 -12 -3 -10 -25
-37 -49 -60 -23 -24 -41 -43 -39 -43 2 0 -23 -27 -55 -60 -32 -33 -57 -60 -55
-60 2 0 -12 -17 -33 -38 -20 -21 -62 -67 -92 -101 -30 -34 -75 -84 -100 -110
-25 -27 -67 -75 -95 -107 -27 -31 -69 -76 -91 -100 -23 -24 -39 -45 -37 -48 3
-2 -5 -9 -16 -16 -12 -6 -21 -18 -21 -26 0 -8 -4 -12 -10 -9 -5 3 -10 2 -10
-2 0 -5 -18 -29 -41 -53 -22 -25 -57 -64 -76 -87 -19 -24 -38 -41 -42 -39 -4
3 -8 -6 -9 -20 -2 -22 -1 -23 18 -7 10 9 16 21 13 26 -3 6 -1 7 5 3 7 -4 30
11 55 36 70 70 142 134 132 119 -4 -8 19 12 52 45 76 74 106 99 116 96 5 -1 6
1 3 6 -3 5 13 24 35 43 66 54 139 121 185 167 24 23 46 42 50 42 4 0 19 12 34
28 54 55 98 90 105 84 4 -4 5 -2 3 4 -4 14 63 75 75 67 6 -3 7 -2 4 4 -6 10
27 43 44 43 5 0 7 5 4 10 -3 6 -2 10 3 10 5 0 29 19 53 43 24 24 56 52 71 61
15 10 25 22 22 27 -3 5 -1 9 5 9 6 0 24 13 41 30 16 16 30 27 30 25 0 -3 14
10 31 28 17 17 37 31 43 29 6 -2 8 -1 4 3 -8 8 41 59 66 68 9 4 16 13 16 20 0
10 8 13 25 9 14 -2 22 -8 19 -13 -3 -5 0 -9 6 -9 6 0 17 -6 24 -12 7 -7 24
-22 39 -32 14 -11 23 -24 20 -29 -3 -6 -1 -7 4 -4 6 4 16 0 23 -8 7 -8 17 -12
23 -8 5 3 7 2 4 -4 -3 -5 3 -16 15 -24 11 -8 29 -23 39 -33 11 -11 19 -17 19
-13 0 4 13 -7 28 -23 16 -16 32 -27 35 -23 4 3 7 -2 7 -12 0 -10 3 -15 7 -12
3 4 13 -2 20 -13 8 -11 19 -18 24 -15 5 4 9 2 9 -2 0 -5 7 -18 16 -29 8 -10
12 -12 8 -4 -4 8 12 -3 37 -25 24 -22 43 -43 41 -47 -1 -5 2 -7 6 -5 10 2 65
-40 152 -116 14 -12 40 -33 58 -45 18 -13 29 -28 26 -34 -4 -6 -1 -9 6 -6 8 2
21 -3 30 -11 43 -42 81 -71 91 -71 5 0 7 -4 4 -10 -3 -5 1 -10 9 -10 9 0 16
-4 16 -10 0 -5 7 -10 16 -10 8 0 13 -4 10 -8 -3 -5 6 -15 19 -22 13 -7 22 -18
18 -23 -3 -6 -2 -7 4 -4 5 3 26 -9 46 -28 21 -19 37 -32 37 -28 0 3 10 -6 23
-20 12 -15 28 -27 34 -27 6 0 13 -7 17 -15 3 -8 17 -20 31 -27 14 -6 25 -18
25 -26 0 -9 3 -13 6 -9 3 3 15 -3 27 -13 70 -60 83 -70 90 -70 5 0 5 -4 2 -10
-3 -5 1 -10 9 -10 9 0 16 -5 16 -10 0 -6 6 -9 13 -8 6 2 11 -3 9 -9 -1 -7 5
-13 14 -13 9 0 12 -5 8 -12 -4 -6 -3 -8 4 -4 6 3 32 -14 57 -39 26 -25 51 -45
56 -45 4 0 15 -10 23 -22 9 -12 16 -19 16 -15 0 5 14 -4 31 -20 57 -53 69 -63
74 -63 3 0 14 -8 24 -17 43 -40 51 -44 51 -32 0 7 3 9 7 6 3 -4 16 4 28 18 13
13 26 21 31 17 4 -4 4 -2 1 4 -4 6 3 20 16 30 21 19 21 19 7 -1 -8 -11 7 2 33
28 27 27 53 45 59 41 8 -5 9 -1 5 10 -4 10 -3 15 3 11 6 -3 10 -1 10 5 0 6 5
8 10 5 6 -3 10 -1 10 5 0 6 5 8 10 5 6 -3 10 1 10 9 0 9 6 16 14 16 8 0 18 5
22 12 5 7 2 9 -7 4 -8 -4 -5 0 5 8 11 9 26 16 34 16 9 0 12 6 8 16 -6 14 -4
15 9 4 9 -7 15 -9 14 -4 -4 21 2 35 11 29 6 -3 10 -1 10 5 0 7 7 10 15 6 8 -3
14 -2 14 2 -3 21 3 32 17 32 9 0 12 5 8 13 -5 7 -2 7 10 -2 9 -8 16 -10 15 -5
-3 18 1 34 9 32 6 -2 34 19 82 64 10 9 21 14 24 10 3 -3 6 0 6 7 0 7 5 9 10 6
6 -4 10 -3 9 2 -3 18 1 36 8 30 3 -4 13 -1 22 7 9 8 21 16 26 18 6 2 9 6 7 11
-1 4 9 12 23 19 13 6 22 15 19 19 -3 5 2 9 10 9 9 0 16 5 16 11 0 5 4 7 10 4
6 -3 10 1 10 10 0 9 4 14 9 11 5 -3 15 2 22 11 12 14 12 16 0 8 -10 -5 -12 -4
-7 4 4 6 11 9 16 6 5 -3 15 1 23 9 8 8 18 12 21 8 4 -3 4 2 0 12 -5 13 -4 17
3 13 6 -4 14 0 17 9 3 8 10 13 15 10 5 -3 12 1 15 10 4 9 9 14 12 11 9 -9 54
35 47 46 -4 6 0 8 10 4 12 -4 17 -1 17 10 0 9 3 14 6 10 3 -3 16 5 29 19 12
13 25 24 29 24 4 0 24 17 44 38 21 21 44 36 51 34 8 -3 11 -1 8 4 -2 5 1 15 9
22 8 7 14 10 14 7 0 -4 17 11 37 32 20 21 33 31 29 23 -4 -8 1 -4 13 10 11 14
26 25 33 25 7 1 12 6 10 13 -1 7 4 12 12 12 8 0 16 7 20 15 3 8 12 15 21 15 8
0 15 5 15 10 0 6 20 23 45 39 24 15 42 31 39 34 -6 6 37 32 49 29 7 -2 11 14
8 31 -1 4 7 7 16 5 10 -2 17 2 15 10 -1 6 1 11 5 11 21 -3 32 3 38 21 4 11 10
18 14 15 4 -2 18 7 30 21 12 14 26 22 31 19 6 -3 10 1 10 11 0 15 2 15 23 1
12 -8 21 -21 19 -28 -2 -10 0 -10 12 1 10 8 16 8 16 2 0 -15 77 -92 84 -85 3
4 6 1 6 -6 0 -7 7 -19 15 -27 8 -9 15 -12 15 -8 0 4 6 -1 14 -11 8 -11 12 -24
8 -30 -3 -5 2 -4 11 4 14 11 17 11 18 0 1 -8 1 -18 0 -22 -1 -5 3 -6 9 -2 5 3
10 1 10 -5 0 -7 7 -10 15 -6 8 3 14 2 14 -2 -3 -20 2 -33 11 -27 6 3 10 -1 10
-9 0 -8 5 -18 12 -22 7 -5 9 -2 4 7 -4 8 0 5 8 -5 9 -11 16 -16 16 -10 0 5 6
-2 13 -16 7 -13 23 -27 37 -31 14 -4 18 -8 10 -8 -13 -1 -13 -3 0 -10 8 -6 18
-7 22 -5 5 3 7 0 6 -8 -2 -7 3 -12 11 -10 9 2 11 -3 7 -13 -3 -9 -2 -13 4 -10
6 3 10 1 10 -4 0 -6 7 -11 16 -11 8 0 12 -4 9 -10 -3 -5 -1 -10 5 -10 16 0 60
-47 52 -56 -4 -4 -1 -4 6 0 7 4 15 1 18 -8 3 -8 14 -18 25 -21 10 -4 19 -14
19 -22 0 -9 3 -14 6 -10 4 3 21 -10 39 -29 18 -18 38 -34 44 -34 7 0 10 -4 7
-9 -6 -9 22 -26 36 -23 5 1 7 -1 6 -6 0 -4 2 -15 7 -25 6 -15 10 -16 16 -5 7
10 9 10 9 0 0 -17 70 -83 81 -76 5 3 9 -2 9 -10 0 -9 7 -16 16 -16 8 0 13 -3
11 -7 -3 -5 1 -14 9 -21 8 -7 14 -10 14 -7 0 3 6 0 14 -7 8 -7 12 -16 9 -20
-2 -5 1 -8 7 -8 6 0 23 -13 38 -28 15 -16 35 -31 45 -35 9 -3 17 -13 17 -22 0
-8 4 -14 8 -12 4 1 20 -10 36 -26 15 -15 33 -24 39 -21 7 4 9 4 5 -1 -8 -9 15
-35 32 -35 6 0 8 -4 5 -10 -3 -5 1 -10 9 -10 20 0 21 29 1 36 -8 4 -15 12 -15
20 0 8 -4 14 -10 14 -5 0 -10 7 -10 16 0 8 -4 12 -10 9 -5 -3 -10 1 -10 10 0
9 -3 14 -7 12 -5 -3 -14 1 -21 9 -7 8 -9 14 -5 14 4 1 -2 9 -14 19 -12 10 -20
21 -17 24 3 3 -4 8 -15 12 -12 3 -21 10 -21 15 0 5 -10 20 -22 33 -13 13 -35
38 -49 55 -15 17 -30 28 -34 24 -5 -4 -5 -2 -2 4 7 13 -26 48 -36 38 -4 -4 -5
3 -2 14 2 13 -1 21 -8 19 -6 -1 -11 3 -12 10 0 6 -4 15 -9 20 -5 5 -6 2 -1 -7
4 -8 -8 1 -27 20 -19 19 -34 38 -34 41 1 3 -23 28 -51 56 -29 29 -53 55 -53
60 0 5 -18 24 -39 43 -22 18 -38 37 -35 42 3 4 -2 8 -10 8 -9 0 -16 5 -16 11
0 14 -26 39 -41 39 -7 0 -9 3 -6 6 3 4 -8 20 -26 37 -18 16 -31 34 -30 38 2 4
-6 11 -17 14 -18 6 -25 17 -21 38 1 5 -3 6 -7 3 -5 -3 -19 3 -31 13 -16 14
-18 21 -9 24 8 3 6 6 -5 6 -10 1 -15 6 -12 11 3 6 -1 10 -10 10 -8 0 -20 11
-25 24 -5 13 -15 28 -22 32 -9 5 -8 2 2 -12 14 -18 14 -18 -2 -5 -10 7 -18 17
-18 22 0 12 -119 129 -132 129 -6 0 -6 6 2 15 10 13 9 15 -9 15 -12 0 -21 6
-21 16 0 8 -4 12 -10 9 -5 -3 -10 -1 -10 5 0 5 -20 31 -45 56 -24 26 -42 50
-39 55 3 5 -2 6 -10 3 -9 -3 -17 2 -21 15 -3 12 -10 21 -14 21 -8 0 -42 -26
-71 -54 -8 -8 -22 -16 -30 -18 -22 -5 -39 -22 -32 -33 3 -5 -3 -3 -13 5 -11 9
-16 10 -11 3 4 -8 2 -13 -4 -13 -6 0 -9 -4 -6 -9 3 -5 -1 -12 -10 -15 -10 -4
-13 -2 -9 7 4 6 1 5 -7 -4 -7 -9 -23 -21 -36 -28 -12 -7 -20 -16 -17 -21 3 -6
0 -8 -7 -5 -7 3 -28 -8 -47 -24 -19 -17 -38 -28 -42 -25 -4 2 -10 -3 -13 -12
-3 -8 -10 -12 -16 -9 -9 6 -14 -7 -11 -27 0 -4 -6 -5 -14 -2 -8 4 -17 -1 -21
-10 -3 -9 -10 -13 -15 -10 -5 3 -12 -2 -15 -11 -6 -13 -8 -14 -15 -3 -7 10 -9
9 -9 -4 0 -10 -10 -20 -25 -24 -13 -3 -24 -9 -23 -13 2 -19 -3 -24 -12 -11 -8
13 -10 13 -10 -2 0 -11 -5 -15 -15 -12 -10 4 -15 0 -15 -11 0 -11 -5 -15 -16
-11 -8 3 -13 2 -10 -3 3 -5 -2 -15 -11 -22 -14 -12 -16 -12 -8 1 5 8 -3 4 -18
-10 -14 -14 -32 -25 -39 -25 -7 -1 -12 -6 -10 -13 2 -12 -10 -16 -37 -13 -7 2
-10 -3 -6 -9 4 -7 -2 -14 -14 -17 -12 -3 -21 -12 -21 -20 0 -10 -7 -14 -20
-10 -11 3 -18 2 -16 -2 7 -11 -28 -38 -42 -33 -7 2 -12 -3 -12 -12 0 -8 -5
-18 -12 -22 -7 -5 -9 -2 -4 7 4 8 0 5 -9 -6 -9 -11 -19 -19 -23 -19 -4 1 -6
-2 -5 -7 2 -4 -5 -5 -14 -2 -11 4 -14 3 -9 -5 4 -7 2 -12 -6 -12 -7 0 -29 -14
-48 -30 -19 -17 -41 -28 -48 -25 -7 3 -11 1 -8 -4 8 -12 -42 -44 -55 -36 -5 4
-9 3 -8 -2 4 -21 -2 -32 -15 -27 -9 3 -17 -3 -21 -17 -6 -17 -9 -19 -16 -8 -7
11 -9 10 -9 -3 0 -10 -4 -18 -10 -18 -19 0 -25 -3 -36 -18 -7 -9 -16 -12 -24
-7 -9 5 -11 4 -6 -3 4 -7 2 -12 -4 -12 -6 0 -8 -5 -4 -12 4 -6 3 -8 -4 -4 -6
3 -13 2 -17 -4 -4 -6 -11 -8 -16 -5 -8 6 -13 -8 -10 -27 0 -4 -6 -5 -14 -2 -8
4 -15 1 -15 -4 0 -6 -9 -9 -19 -7 -12 2 -18 -1 -15 -8 2 -7 -9 -18 -26 -25
-17 -8 -27 -18 -24 -24 4 -6 2 -8 -3 -5 -6 4 -21 -2 -33 -13 -12 -11 -27 -17
-32 -14 -4 3 -7 2 -6 -3 2 -4 0 -8 -4 -8 -4 0 -15 -11 -24 -24 -13 -18 -18
-20 -25 -10 -7 11 -9 10 -9 -3 0 -10 -5 -18 -11 -18 -5 0 -8 -4 -5 -9 3 -5 -2
-8 -12 -7 -9 0 -16 -4 -15 -11 2 -8 -4 -10 -14 -6 -10 4 -14 2 -10 -4 8 -13
-33 -12 -51 2 -7 6 -22 18 -33 28 -10 9 -23 17 -29 17 -5 0 -10 5 -10 12 0 6
-3 9 -6 5 -4 -3 -12 -1 -19 6 -20 19 -52 40 -61 40 -5 0 -15 8 -22 18 -7 11
-20 19 -28 19 -8 0 -14 5 -14 10 0 6 -7 10 -15 10 -8 0 -15 7 -15 15 0 8 -3
14 -7 13 -7 -2 -62 30 -73 42 -11 13 -133 90 -142 90 -5 0 -7 4 -4 9 3 5 -8
14 -24 21 -17 7 -30 16 -30 21 0 5 -7 9 -15 9 -8 0 -15 5 -15 10 0 6 -5 10
-10 10 -6 0 -20 9 -32 20 -12 11 -28 20 -35 20 -7 0 -13 7 -13 15 0 8 -3 14
-7 13 -15 -3 -43 14 -37 23 3 5 2 8 -3 7 -11 -3 -52 20 -77 43 -11 11 -26 19
-33 19 -8 0 -11 5 -8 10 3 6 -1 10 -9 10 -9 0 -25 9 -36 20 -11 11 -23 20 -27
20 -5 0 -24 14 -43 30 -19 17 -50 37 -67 45 -18 9 -33 20 -33 25 0 6 -6 10
-14 10 -8 0 -23 11 -34 25 -14 17 -22 21 -25 13 -3 -8 -6 -6 -6 5 -1 9 -4 17
-8 16 -19 -3 -53 15 -53 26 0 8 -9 17 -20 20 -11 4 -32 18 -46 32 -14 14 -28
23 -31 20 -3 -3 -17 5 -31 19 -15 13 -30 24 -35 24 -4 0 -5 4 -2 10 3 6 -1 7
-9 4 -9 -3 -16 -1 -16 5 0 6 -4 11 -9 11 -6 0 -22 11 -37 25 -15 14 -29 23
-32 20 -3 -2 -13 5 -23 17 -11 11 -19 17 -19 12 0 -5 -5 -2 -10 6 -5 8 -14 15
-20 15 -6 0 -20 11 -31 25 -12 14 -18 19 -14 13 9 -19 -1 -16 -29 10 -41 37
-56 48 -56 40 0 -4 -4 -2 -9 6 -7 10 -12 8 -25 -10z"/>
<path d="M2261 4744 c0 -6 -26 -10 -65 -9 -36 0 -63 -2 -60 -6 2 -4 -3 -15
-12 -23 -8 -9 -12 -16 -7 -16 13 0 11 -54 -1 -62 -7 -5 -7 -8 2 -8 7 0 11 -9
8 -23 -3 -17 1 -23 14 -23 10 0 16 5 12 11 -4 6 -1 6 9 -1 8 -5 23 -10 34 -9
11 0 28 -3 39 -8 13 -6 16 -6 12 2 -11 17 5 13 28 -6 20 -17 20 -17 7 0 -11
13 -11 17 -1 17 8 0 10 3 7 7 -4 3 -1 13 6 21 9 12 9 14 0 9 -15 -9 -13 74 2
85 6 5 3 8 -7 8 -9 0 -19 10 -21 23 -2 12 -5 17 -6 11z"/>
<path d="M2386 4741 c-4 -6 -12 -9 -17 -5 -21 13 -38 -16 -28 -49 11 -39 11
-39 1 -33 -10 6 -9 -25 2 -42 4 -7 2 -12 -4 -12 -7 0 -5 -7 4 -16 9 -8 20 -12
26 -9 5 3 10 0 10 -7 0 -8 3 -9 8 -3 4 6 32 10 64 10 49 -1 56 1 53 17 -2 10
2 18 8 18 8 0 8 3 2 8 -5 4 -10 32 -10 62 l0 55 -37 6 c-20 3 -43 2 -50 -2 -7
-4 -15 -3 -19 3 -4 7 -9 7 -13 -1z"/>
<path d="M5614 4722 c6 -10 -1 -12 -28 -9 -20 2 -36 0 -36 -6 0 -6 -5 -6 -13
1 -10 8 -12 -5 -12 -61 0 -85 8 -94 84 -100 57 -5 88 10 78 37 -4 10 -3 15 3
11 6 -3 10 -1 10 4 0 6 -6 11 -12 11 -9 0 -8 4 2 10 12 8 13 13 2 30 -7 11 -8
20 -3 20 5 0 7 9 4 20 -5 18 -21 25 -47 21 -4 -1 -15 4 -24 11 -13 11 -14 11
-8 0z"/>
<path d="M5755 4716 c-31 -35 -40 -50 -26 -41 11 6 13 4 8 -8 -3 -9 -2 -19 4
-23 6 -4 3 -14 -8 -27 -10 -11 -12 -17 -5 -13 8 5 12 0 12 -14 0 -14 -4 -19
-12 -14 -10 6 -10 5 -1 -7 10 -12 32 -16 95 -15 l83 1 0 83 c0 62 -3 81 -12
77 -7 -2 -13 1 -13 8 0 7 -3 8 -8 2 -10 -14 -42 -15 -42 -2 0 8 -3 8 -11 0 -7
-7 -20 -8 -33 -3 -13 5 -25 3 -31 -4z"/>
<path d="M2132 4528 c-6 -7 -10 -39 -9 -71 1 -31 -2 -59 -8 -61 -5 -3 -4 -5 3
-5 7 -1 10 -6 6 -13 -5 -7 -2 -9 9 -5 12 4 14 2 10 -11 -5 -14 -3 -15 8 -4 7
6 17 12 22 12 4 0 5 -6 1 -12 -5 -8 -1 -8 10 1 15 13 19 13 27 0 7 -11 9 -11
9 0 0 11 3 11 15 1 11 -9 15 -9 15 -1 0 7 8 11 18 9 15 -3 17 6 18 72 1 41 -1
80 -5 85 -8 13 -111 15 -111 2 0 -5 -6 -4 -14 2 -10 8 -16 8 -24 -1z"/>
<path d="M2431 4524 c-1 -6 -19 -9 -41 -8 -22 1 -37 -2 -34 -7 3 -5 -2 -12
-11 -15 -14 -6 -14 -8 2 -21 10 -8 12 -12 5 -8 -9 5 -11 -1 -8 -21 3 -15 1
-33 -3 -38 -6 -7 -4 -19 5 -30 8 -11 14 -16 14 -12 0 5 8 2 17 -5 15 -12 16
-12 9 6 -5 15 -4 17 5 8 6 -6 18 -9 27 -6 11 5 13 3 7 -8 -7 -12 -6 -12 7 -1
10 8 18 9 22 3 4 -6 16 -7 29 -2 22 8 29 36 14 58 -4 6 -3 14 3 18 6 3 8 10 5
15 -3 5 -1 11 5 15 6 4 4 14 -5 29 -8 12 -12 26 -8 31 5 4 -2 2 -14 -4 -18 -9
-23 -9 -23 1 0 10 -2 10 -9 -1 -7 -11 -9 -11 -14 0 -3 8 -6 9 -6 3z m74 -44
c3 -5 1 -10 -4 -10 -6 0 -11 5 -11 10 0 6 2 10 4 10 3 0 8 -4 11 -10z"/>
<path d="M5599 4523 c-1 -5 -1 -11 0 -15 0 -5 -6 -8 -14 -8 -8 0 -15 5 -15 12
0 6 -7 3 -15 -8 -11 -14 -14 -15 -15 -4 0 11 -2 12 -8 3 -6 -10 -9 -132 -3
-165 1 -5 105 -5 159 1 14 1 12 22 -3 33 -6 5 -5 8 4 8 11 0 11 3 0 17 -12 15
-12 16 5 10 16 -6 17 -5 6 8 -7 8 -10 24 -7 35 3 13 -5 31 -26 52 -19 20 -28
26 -24 14 6 -14 4 -17 -9 -12 -8 3 -20 6 -25 6 -6 0 -7 5 -4 10 3 6 4 10 1 10
-3 0 -7 -3 -7 -7z"/>
<path d="M5757 4492 c-15 -2 -25 -8 -21 -13 3 -5 11 -7 17 -3 7 3 3 -2 -7 -10
-11 -9 -14 -16 -8 -16 10 0 10 -5 2 -20 -8 -15 -8 -20 2 -20 9 0 9 -3 0 -12
-8 -8 -8 -16 0 -32 6 -12 11 -23 10 -26 -1 -3 23 -4 53 -3 31 1 53 -2 50 -7
-3 -5 6 -5 22 1 20 6 28 17 29 34 1 14 -2 22 -8 19 -6 -4 -5 4 2 16 7 12 8 25
4 29 -12 8 -11 34 1 43 13 10 6 14 -38 22 -30 6 -37 4 -31 -5 5 -8 3 -10 -7
-4 -15 10 -32 12 -72 7z"/>
<path d="M6882 4470 c-10 -17 -10 -20 2 -20 8 0 17 -9 21 -20 3 -11 12 -19 18
-17 7 1 11 -3 10 -9 -1 -7 11 -17 27 -24 16 -7 27 -17 23 -23 -3 -6 -1 -7 6
-3 16 10 -4 36 -28 36 -14 0 -14 2 -1 10 13 8 12 10 -3 10 -10 0 -16 4 -13 9
3 5 -1 12 -10 15 -8 3 -12 11 -8 17 4 8 3 9 -5 5 -6 -4 -14 1 -19 13 -7 21 -7
21 -20 1z"/>
<path d="M6060 3282 c0 -5 -11 -8 -25 -6 -14 1 -31 -4 -39 -11 -7 -8 -16 -11
-20 -8 -3 3 -20 -10 -38 -30 -58 -64 -58 -64 -58 -93 0 -8 -4 -13 -8 -10 -4 2
-8 -21 -9 -52 0 -41 -4 -56 -13 -54 -9 2 -8 -4 3 -22 10 -14 13 -27 7 -31 -5
-3 -7 -11 -5 -18 2 -7 6 -28 9 -47 5 -37 13 -73 16 -77 2 -2 3 -6 4 -10 1 -5
5 -14 9 -20 5 -7 6 -13 2 -13 -3 0 0 -10 7 -22 7 -13 11 -26 10 -30 -1 -5 1
-8 6 -8 4 0 16 -20 27 -45 11 -25 22 -45 26 -45 3 0 23 -25 43 -55 22 -34 41
-53 48 -49 8 5 9 2 5 -9 -4 -11 2 -22 18 -33 14 -9 23 -19 20 -23 -2 -4 7 -19
20 -33 13 -14 21 -28 18 -32 -3 -3 2 -8 11 -12 9 -3 16 -12 16 -20 0 -8 4 -14
10 -14 5 0 9 -3 9 -7 -4 -22 2 -43 10 -39 5 4 8 -2 7 -11 -2 -10 2 -21 8 -25
17 -11 14 -157 -4 -168 -8 -5 -11 -10 -6 -10 5 0 2 -8 -7 -18 -10 -10 -14 -22
-10 -25 3 -4 -1 -7 -11 -7 -9 0 -19 -6 -22 -14 -3 -8 -12 -12 -20 -9 -8 3 -14
1 -14 -4 0 -6 -12 -9 -27 -8 -16 1 -31 -3 -35 -9 -5 -8 -8 -7 -8 1 0 6 -13 14
-29 18 -15 3 -37 16 -47 28 -25 29 -54 89 -48 99 3 4 1 8 -3 8 -10 0 -14 23
-16 90 -1 49 -20 80 -34 58 -4 -7 -8 -84 -8 -170 -1 -87 3 -152 7 -145 6 9 10
9 18 -3 9 -13 10 -13 11 0 1 8 1 19 0 23 -1 5 3 6 8 3 5 -4 12 -2 16 4 6 10
85 -16 95 -32 8 -10 118 -3 151 10 15 6 37 21 51 34 31 30 72 88 61 88 -4 0
-2 4 5 8 7 5 15 32 19 60 3 29 10 52 16 52 5 0 3 8 -4 17 -12 15 -12 16 1 8
12 -6 13 -5 3 6 -16 16 -17 33 -2 24 7 -5 7 -2 0 11 -5 11 -13 40 -16 66 -3
26 -10 50 -16 53 -5 4 -7 11 -4 16 4 5 -1 16 -10 25 -9 9 -14 22 -11 29 3 8
-2 16 -10 19 -9 3 -12 10 -9 16 3 5 1 10 -4 10 -6 0 -11 7 -11 15 0 8 -5 15
-11 15 -5 0 -8 4 -5 8 3 5 -4 19 -15 30 -11 12 -17 22 -14 22 4 0 -1 7 -9 16
-9 8 -13 20 -10 26 4 7 2 8 -4 4 -7 -4 -16 3 -21 17 -6 14 -18 33 -28 44 -29
27 -79 96 -86 116 -4 11 -12 15 -19 11 -8 -5 -9 -2 -5 9 3 10 3 17 -2 17 -5 0
-14 15 -22 33 -7 17 -16 35 -21 38 -4 3 -9 17 -10 32 -1 15 -6 27 -11 27 -4 0
-7 8 -5 18 1 9 -1 23 -5 30 -5 7 -3 12 4 12 8 0 7 5 -2 17 -10 11 -10 14 -1 9
6 -4 12 -4 13 1 3 33 11 58 22 65 6 4 8 8 4 8 -4 0 5 11 20 25 43 38 47 40 63
40 8 -1 25 2 36 6 12 4 25 5 28 1 4 -3 16 -7 28 -9 11 -2 29 -13 39 -26 10
-12 24 -29 31 -37 7 -8 12 -18 10 -23 -1 -4 4 -20 11 -35 7 -15 13 -34 12 -42
-1 -8 3 -21 8 -27 6 -9 5 -13 -4 -13 -10 0 -10 -3 -1 -12 15 -15 16 -32 2 -23
-6 4 -6 -3 1 -18 10 -22 30 -31 36 -17 1 3 6 18 12 33 8 20 8 26 0 21 -8 -4
-8 0 0 15 7 11 8 21 2 21 -5 0 -8 11 -7 24 0 13 4 22 9 19 4 -2 7 1 7 6 0 6
-5 11 -10 11 -7 0 -7 6 0 20 8 15 8 20 -2 20 -9 0 -9 3 2 10 8 5 10 10 5 10
-6 0 -11 9 -11 20 0 11 3 20 6 20 3 0 6 9 6 19 0 11 -4 17 -8 15 -4 -3 -8 5
-8 18 0 18 -2 20 -10 8 -5 -8 -10 -10 -10 -5 0 6 -7 1 -15 -9 -15 -20 -62 -35
-50 -16 3 6 -1 7 -9 4 -9 -3 -16 -1 -16 5 0 6 -7 11 -15 11 -8 0 -15 5 -15 12
0 6 -3 9 -6 5 -3 -3 -17 -2 -31 4 -17 6 -22 6 -17 -2 4 -8 0 -8 -15 0 -11 7
-21 8 -21 3z"/>
<path d="M2261 3274 c-1 -6 -14 -10 -29 -9 -21 2 -28 -2 -29 -16 -1 -11 5 -19
13 -19 25 0 33 -44 31 -184 -1 -85 2 -136 8 -136 7 0 7 -3 0 -8 -15 -11 -19
-46 -4 -36 8 4 10 3 5 -4 -10 -16 -12 -105 -2 -120 4 -7 3 -12 -2 -12 -10 0
-9 -30 2 -48 4 -6 4 -12 -1 -12 -4 0 -8 -47 -8 -105 0 -63 4 -105 10 -105 7 0
7 -3 0 -8 -5 -4 -10 -29 -10 -57 0 -27 5 -53 10 -57 7 -5 7 -8 0 -8 -6 0 -10
-52 -9 -137 1 -76 -1 -143 -3 -150 -2 -6 -13 -13 -23 -16 -30 -8 -15 -47 16
-41 15 3 24 0 24 -8 0 -7 5 -5 11 6 9 15 13 16 20 5 8 -12 11 -12 19 1 8 13
10 12 10 -4 0 -20 0 -20 15 0 10 13 14 14 15 5 0 -11 3 -11 17 0 11 10 14 10
9 2 -4 -8 -1 -13 8 -13 8 0 20 9 26 20 9 17 7 22 -15 30 -16 6 -25 18 -26 32
0 13 -1 271 -1 573 -1 559 0 584 35 606 24 16 -8 29 -68 26 -38 -2 -67 1 -69
8 -3 6 -5 6 -5 -1z"/>
<path d="M2580 3265 c-9 -11 -16 -13 -24 -5 -17 17 -43 11 -49 -10 -3 -11 -1
-20 5 -20 14 0 38 -26 31 -34 -4 -3 -1 -6 7 -6 10 0 10 -4 -1 -17 -8 -9 -9
-14 -2 -10 13 8 22 -11 15 -35 -2 -10 -9 -15 -16 -12 -6 3 -2 -2 8 -10 11 -9
15 -16 10 -16 -6 0 -10 -11 -10 -25 0 -14 4 -25 10 -25 5 0 1 -7 -10 -16 -10
-8 -13 -13 -6 -9 6 3 12 1 12 -4 0 -6 -6 -11 -12 -11 -7 0 -5 -5 5 -11 18 -10
18 -11 0 -26 -10 -8 -12 -12 -5 -8 6 3 12 2 12 -2 0 -5 -6 -15 -12 -22 -8 -9
-8 -11 -2 -8 7 4 15 0 18 -9 3 -8 2 -13 -3 -10 -5 3 -8 -34 -7 -83 1 -49 -3
-87 -7 -84 -5 3 -4 -4 2 -15 14 -26 14 -35 0 -26 -8 5 -8 1 0 -14 6 -11 11
-23 11 -27 0 -3 -5 -3 -11 1 -8 4 -8 1 -2 -12 5 -11 8 -81 7 -156 -1 -99 2
-136 10 -131 6 4 5 -1 -2 -10 -8 -9 -11 -25 -7 -38 5 -14 4 -19 -4 -15 -7 5
-9 1 -5 -8 3 -9 10 -13 15 -10 5 3 6 -2 3 -10 -3 -9 -11 -13 -16 -10 -6 4 -5
-2 1 -14 14 -26 14 -35 1 -27 -6 3 -7 -1 -4 -9 3 -9 11 -13 18 -10 6 3 2 -2
-8 -10 -11 -9 -15 -16 -10 -16 5 0 10 -9 11 -20 1 -11 -2 -18 -7 -15 -6 3 -8
0 -5 -7 10 -30 13 -68 4 -68 -5 0 -8 -6 -6 -12 1 -7 -4 -12 -10 -11 -7 2 -13
-2 -13 -8 0 -5 -4 -8 -9 -5 -4 3 -8 -4 -7 -15 1 -17 8 -22 38 -24 25 -1 35 2
31 9 -4 6 1 5 11 -3 14 -12 19 -12 26 -2 5 10 9 10 11 2 3 -7 12 -9 21 -6 19
7 13 45 -8 45 -7 0 -16 6 -21 13 -9 15 -11 937 -1 937 4 0 11 -12 14 -27 4
-16 10 -32 14 -38 4 -5 6 -20 5 -32 -1 -14 4 -23 13 -23 12 0 12 -3 2 -15 -10
-12 -10 -15 0 -15 7 0 10 -7 6 -15 -3 -8 -1 -15 4 -15 6 0 9 -3 9 -7 -1 -5 0
-10 1 -13 1 -3 4 -18 6 -35 3 -16 10 -32 15 -36 5 -3 7 -13 4 -21 -4 -9 -1
-19 4 -23 6 -3 9 -11 6 -16 -4 -5 0 -9 7 -9 9 0 9 -3 -2 -10 -10 -6 -11 -10
-2 -10 6 0 11 -3 10 -7 -1 -5 4 -21 11 -37 6 -16 10 -35 7 -43 -3 -7 -1 -13 4
-13 6 0 9 -3 9 -7 -1 -5 0 -10 1 -13 1 -3 3 -12 5 -20 2 -8 7 -26 11 -40 3
-14 7 -35 8 -47 0 -11 4 -19 9 -16 6 4 11 -11 8 -29 0 -3 8 -32 19 -62 10 -31
16 -56 13 -56 -3 0 0 -7 7 -15 6 -8 9 -19 6 -24 -4 -5 -2 -12 4 -16 6 -4 8
-11 5 -16 -4 -5 -2 -9 2 -9 5 0 10 -12 11 -26 1 -14 5 -31 9 -37 4 -7 9 -21
10 -32 2 -11 8 -21 13 -23 5 -2 6 -10 4 -17 -3 -8 0 -20 7 -28 12 -12 15 -12
26 2 8 10 12 12 13 4 0 -7 5 -13 11 -13 5 0 8 4 5 8 -8 14 31 7 50 -9 11 -9
15 -9 10 -1 -6 10 2 16 24 14 3 0 5 44 5 99 0 54 -3 99 -6 99 -10 0 3 65 15
72 7 5 4 8 -7 8 -15 0 -16 3 -7 20 8 14 8 20 0 20 -6 0 -8 4 -5 10 9 14 10
103 2 117 -4 6 -1 14 5 16 10 4 9 8 -2 16 -12 8 -12 11 -1 11 11 0 11 3 1 15
-7 8 -8 15 -3 15 11 0 11 29 -1 48 -4 6 -3 12 2 12 10 0 9 30 -2 48 -4 6 -3
12 2 12 4 0 7 23 4 51 -2 36 0 54 10 60 10 7 9 9 -5 9 -15 0 -16 3 -7 20 6 12
7 20 1 20 -5 0 -7 12 -3 28 9 35 8 64 -1 80 -5 6 -4 12 1 12 9 0 7 61 -3 88
-2 6 3 12 12 12 14 0 14 2 -3 15 -13 10 -14 14 -5 15 10 0 11 3 2 14 -9 11 -9
15 1 19 10 4 10 8 -2 16 -12 8 -12 11 -1 11 11 0 11 3 1 15 -7 8 -8 15 -3 15
6 0 9 13 7 30 -2 16 1 32 6 35 6 4 8 11 5 16 -6 8 8 13 28 10 4 0 7 2 8 6 0 5
2 15 4 24 2 14 -5 16 -46 14 -35 -2 -47 0 -42 8 5 9 3 9 -8 1 -8 -6 -22 -10
-32 -9 -10 2 -14 -1 -10 -8 4 -6 0 -8 -11 -4 -14 5 -15 3 -6 -13 5 -10 16 -22
23 -26 7 -5 6 0 -3 12 -14 19 -14 19 7 0 13 -10 20 -23 17 -27 -3 -5 -2 -9 3
-9 6 0 10 -897 4 -975 -2 -28 -30 36 -33 76 -1 16 -5 29 -9 29 -3 0 -9 19 -13
42 -4 23 -12 48 -18 55 -6 7 -7 13 -3 13 4 0 1 8 -6 17 -12 14 -12 16 1 9 13
-7 13 -6 0 6 -8 7 -16 24 -18 38 -1 13 -8 28 -15 32 -9 6 -9 8 1 8 10 0 10 5
2 20 -6 11 -7 20 -3 20 4 0 2 4 -5 9 -8 5 -14 24 -15 44 0 20 -5 34 -9 31 -7
-5 -13 28 -9 50 1 5 -2 12 -7 15 -6 3 -12 20 -15 37 -3 17 -9 40 -15 50 -5 11
-8 29 -7 41 1 12 -2 20 -7 17 -7 -5 -12 18 -9 39 0 4 -3 7 -7 7 -8 0 -12 23
-12 68 0 12 -6 25 -14 28 -7 3 -12 16 -10 30 1 13 -1 24 -6 24 -4 0 -11 7 -14
16 -4 9 -2 13 5 8 8 -4 7 0 0 15 -7 11 -8 21 -4 21 4 0 3 4 -4 8 -6 4 -13 19
-15 32 -2 14 -7 31 -12 38 -4 7 -6 18 -4 25 3 7 -3 20 -13 29 -16 15 -18 15
-23 1 -6 -14 -9 -13 -28 3 -12 11 -18 13 -14 7 4 -8 1 -13 -9 -13 -9 0 -13 5
-10 10 10 16 -1 12 -15 -5z"/>
<path d="M3961 3274 c-1 -6 -16 -9 -36 -8 -19 2 -37 -1 -40 -6 -8 -13 6 -40
21 -40 8 0 15 -3 15 -7 6 -41 3 -1152 -3 -1166 -5 -10 -14 -14 -20 -11 -6 4
-8 3 -4 -4 3 -6 2 -13 -4 -17 -17 -10 -11 -25 10 -25 11 0 20 -6 20 -12 0 -7
5 -5 11 6 9 15 13 16 20 5 8 -12 10 -12 18 0 5 7 11 9 14 4 3 -5 33 -8 66 -6
33 1 63 -3 67 -8 4 -6 14 -3 27 8 11 10 17 13 14 7 -4 -7 0 -15 9 -18 9 -3 12
-2 8 5 -4 7 6 9 31 5 26 -4 34 -3 29 6 -5 7 -3 8 7 3 7 -5 32 -8 56 -8 26 1
43 -3 43 -10 0 -7 5 -4 11 6 6 9 15 14 21 11 7 -5 9 -1 5 9 -4 10 -1 17 6 17
8 0 8 3 -2 9 -10 6 -11 13 -2 29 7 14 8 23 1 27 -5 3 -10 11 -10 16 0 6 4 8 9
5 10 -7 9 20 -1 30 -4 3 -4 12 -1 20 4 10 -2 13 -20 12 -18 -2 -24 -7 -22 -20
2 -10 1 -18 -3 -18 -4 0 -8 -12 -9 -27 0 -14 -8 -30 -17 -35 -9 -5 -14 -13
-11 -18 7 -12 -54 -30 -87 -26 -16 2 -28 -2 -28 -8 0 -7 -3 -7 -8 -1 -10 14
-42 18 -42 5 0 -6 -5 -8 -12 -4 -7 5 -25 7 -40 6 -23 -2 -28 2 -29 20 -5 122
-2 542 3 551 8 13 68 17 68 4 0 -4 6 -5 13 0 17 10 57 12 57 1 0 -4 7 -8 15
-8 8 0 15 -4 15 -10 0 -19 3 -25 19 -38 12 -10 12 -12 1 -6 -13 7 -13 5 -1 -9
10 -13 18 -14 32 -6 10 5 19 12 19 15 0 3 -4 3 -9 0 -5 -3 -11 3 -14 14 -3 11
-1 18 3 15 10 -6 3 72 -7 88 -3 6 -1 7 4 4 12 -8 25 17 15 28 -4 4 -8 11 -8
16 -1 5 -2 14 -3 19 0 6 -8 10 -16 10 -8 0 -14 -3 -13 -7 4 -15 -33 -74 -42
-68 -6 4 -10 2 -10 -4 0 -6 -13 -9 -30 -7 -16 2 -31 -2 -33 -8 -3 -8 -8 -7
-19 1 -8 7 -18 9 -24 4 -5 -5 -18 -5 -29 -1 -11 5 -14 9 -7 9 8 1 10 6 6 13
-4 7 -8 137 -8 290 -1 271 -1 278 19 279 27 1 197 -1 213 -3 6 -1 10 -3 8 -6
-4 -4 2 -13 30 -45 13 -15 14 -19 14 -55 0 -21 5 -28 20 -29 22 -2 48 33 29
39 -7 2 -7 12 0 31 6 15 7 27 2 27 -10 0 -9 26 2 36 12 12 8 26 -5 18 -8 -5
-9 0 -5 15 4 17 2 20 -7 12 -9 -7 -16 -7 -24 1 -9 9 -12 9 -12 -1 0 -11 -3
-11 -15 -1 -12 10 -15 10 -15 0 0 -10 -3 -10 -15 0 -8 7 -15 9 -15 4 0 -10
-192 -9 -216 0 -8 3 -14 0 -14 -6 0 -7 -5 -6 -15 2 -12 10 -15 10 -15 0 0 -9
-4 -9 -17 1 -11 10 -14 10 -9 2 4 -7 3 -13 -3 -13 -5 0 -12 6 -14 13 -3 6 -6
7 -6 1z"/>
<path d="M4501 3259 c-7 -12 -11 -22 -9 -23 2 -1 14 -7 28 -14 l25 -13 0 -580
c0 -557 -1 -581 -19 -595 -10 -7 -22 -12 -25 -9 -4 2 -7 -5 -7 -16 0 -10 3
-19 6 -19 62 -6 108 -5 103 3 -3 5 4 4 16 -2 11 -7 21 -9 21 -5 0 3 8 0 17 -7
14 -12 16 -12 8 0 -7 11 -1 13 28 8 21 -3 37 -3 38 1 0 4 2 15 4 25 2 10 -3
17 -12 17 -34 0 -38 22 -37 221 1 144 5 204 15 227 8 18 17 32 21 32 5 0 8 7
8 16 0 8 5 12 11 9 6 -4 8 -12 6 -19 -3 -6 1 -20 9 -30 7 -11 11 -23 8 -27 -3
-5 0 -9 5 -9 6 0 11 -10 11 -23 0 -13 3 -27 8 -31 4 -4 7 -11 7 -14 1 -4 11
-29 24 -57 13 -27 26 -59 28 -70 2 -10 9 -23 16 -27 6 -4 8 -8 3 -8 -4 0 -1
-11 8 -25 9 -14 13 -25 10 -25 -4 0 -1 -8 8 -17 8 -10 13 -28 12 -40 0 -13 3
-23 8 -23 5 0 3 -10 -3 -22 -7 -13 -12 -25 -11 -28 1 -3 -2 -5 -6 -5 -5 0 -15
-7 -24 -15 -11 -11 -12 -18 -4 -25 15 -13 136 -13 137 0 0 6 4 1 9 -10 8 -18
9 -18 9 -2 1 15 5 16 21 7 15 -8 20 -8 20 2 0 9 3 9 10 -2 9 -13 10 -13 10 0
1 11 4 10 15 -4 14 -18 15 -18 15 -2 0 9 4 15 9 12 5 -3 15 2 22 12 7 9 10 14
5 10 -5 -4 -15 -1 -23 7 -8 8 -22 20 -31 27 -15 12 -28 35 -53 93 -24 56 -32
81 -30 93 1 6 -3 12 -9 12 -5 0 -10 9 -10 19 0 11 -4 23 -10 26 -5 3 -10 15
-10 26 0 10 -5 19 -12 19 -6 0 -9 3 -5 6 3 3 -3 29 -14 56 -10 27 -17 54 -14
59 3 5 -1 6 -10 3 -11 -5 -14 -2 -9 11 4 9 2 20 -4 24 -5 3 -12 17 -13 31 -2
14 -7 27 -11 30 -3 3 -8 14 -10 25 -1 11 -6 23 -10 26 -5 3 -9 17 -10 31 -1
15 -6 24 -10 22 -4 -3 -8 -2 -9 3 0 4 -2 20 -4 35 -2 18 12 58 40 114 25 48
42 91 39 96 -3 4 -2 8 3 8 12 0 44 60 37 71 -3 5 1 12 10 15 8 3 13 14 11 25
-2 11 0 17 6 14 8 -6 11 2 8 21 0 4 5 10 11 14 7 4 13 19 13 33 1 14 4 25 7
24 3 -1 5 1 5 5 0 4 9 14 20 23 11 9 14 14 8 10 -7 -3 -13 -4 -13 -1 0 2 23
18 51 36 28 17 47 25 43 18 -5 -10 -4 -10 5 -2 18 17 3 41 -30 46 -16 3 -29 2
-29 -1 0 -10 -75 -6 -82 4 -5 6 -8 5 -8 -4 0 -11 -3 -11 -17 0 -11 10 -14 10
-9 2 5 -9 0 -13 -13 -13 -26 0 -18 -26 10 -33 24 -6 41 -47 27 -64 -6 -7 -7
-13 -2 -13 5 0 5 -4 -1 -8 -16 -12 -46 -74 -32 -67 6 4 4 0 -5 -8 -10 -8 -18
-22 -18 -31 0 -11 -5 -14 -12 -10 -7 5 -9 2 -6 -7 3 -8 0 -23 -8 -33 -7 -11
-11 -23 -8 -27 3 -5 1 -9 -5 -9 -6 0 -16 -18 -22 -40 -7 -22 -16 -40 -21 -40
-4 0 -8 -9 -8 -20 0 -11 -5 -20 -11 -20 -5 0 -7 -4 -4 -10 3 -5 1 -10 -5 -10
-7 0 -9 -7 -6 -15 3 -9 -1 -18 -9 -21 -8 -4 -13 -10 -10 -14 3 -5 -1 -14 -8
-22 -7 -7 -14 -17 -15 -23 -6 -28 -14 -45 -24 -45 -5 0 -8 -7 -4 -15 3 -8 1
-15 -5 -15 -6 0 -8 -4 -5 -9 4 -5 1 -11 -4 -13 -6 -2 -13 -12 -15 -23 -2 -11
-4 -22 -4 -25 -1 -3 -5 0 -9 7 -9 14 -8 601 2 630 5 15 12 20 23 16 11 -4 14
-2 9 5 -4 7 -3 12 2 12 6 0 12 6 15 14 4 10 0 14 -14 11 -10 -2 -19 2 -19 8 0
8 -3 8 -8 2 -9 -12 -72 -14 -72 -1 0 4 -7 3 -15 -4 -12 -10 -15 -10 -15 1 0
11 -2 11 -10 -1 -9 -13 -11 -13 -20 0 -9 13 -10 13 -10 0 0 -12 -2 -12 -9 -1
-6 10 -10 10 -16 1 -5 -8 -10 -9 -14 -1 -4 6 -12 2 -20 -10z"/>
<path d="M5474 3273 c5 -9 0 -13 -13 -13 -12 0 -22 1 -24 3 -2 1 -15 -6 -30
-16 -15 -9 -27 -14 -27 -10 0 5 -4 3 -8 -2 -4 -6 -22 -23 -40 -38 -19 -15 -30
-27 -26 -27 4 0 -1 -9 -11 -20 -10 -11 -15 -20 -11 -20 3 0 -1 -11 -10 -25 -9
-14 -14 -31 -11 -40 4 -8 2 -17 -3 -20 -5 -3 -7 -14 -5 -25 2 -11 1 -20 -3
-20 -4 0 -7 -44 -7 -98 0 -53 -4 -100 -10 -104 -7 -5 -7 -8 0 -8 6 0 10 -98 9
-276 0 -186 4 -286 12 -309 8 -25 8 -33 0 -28 -6 4 -3 -5 7 -20 9 -15 13 -27
7 -27 -5 0 -2 -8 8 -18 32 -35 52 -62 52 -73 0 -5 5 -7 10 -4 6 3 10 2 10 -3
0 -11 48 -35 74 -38 10 -1 21 -6 25 -11 7 -11 91 -11 108 0 7 5 22 10 33 12
49 9 140 105 140 147 0 10 4 18 8 18 4 0 8 22 7 50 0 33 5 52 14 55 11 4 11 8
0 22 -11 13 -11 17 -1 21 10 3 10 7 1 18 -9 11 -9 14 0 14 8 0 9 5 1 19 -7 14
-7 22 0 26 8 5 8 11 0 20 -8 10 -8 15 0 20 8 5 8 10 0 20 -8 10 -8 15 0 20 8
5 8 10 0 20 -8 10 -8 15 0 20 8 5 8 11 1 19 -7 9 -7 16 2 25 9 11 9 14 -1 18
-9 4 -10 8 -2 18 8 10 8 15 0 20 -8 5 -8 10 0 20 8 10 8 15 0 20 -8 5 -8 10 0
20 7 9 8 15 1 19 -7 5 -7 15 -1 31 7 17 6 25 -1 25 -8 0 -8 4 0 14 9 11 9 16
0 21 -8 6 -7 10 2 16 12 7 12 9 0 9 -10 0 -11 3 -3 13 7 8 7 18 2 27 -6 9 -5
17 3 22 9 6 8 8 -2 8 -11 0 -11 3 0 17 12 14 12 16 0 8 -11 -6 -13 -4 -9 7 4
8 2 21 -2 28 -6 9 -2 19 8 28 9 7 11 11 5 7 -14 -6 -16 4 -16 82 0 23 -4 40
-8 37 -5 -3 -9 6 -9 20 0 14 -5 26 -12 26 -6 0 -9 3 -5 6 3 3 -3 15 -13 27
-11 11 -16 25 -13 31 3 6 3 8 -1 4 -8 -6 -16 -1 -50 29 -8 7 -16 9 -20 6 -3
-4 -6 -1 -6 5 0 7 -8 12 -17 12 -10 0 -31 7 -46 15 -15 8 -25 10 -22 5 3 -5 1
-11 -5 -15 -5 -3 -10 -1 -10 6 0 7 -3 9 -7 6 -3 -4 -13 -1 -21 6 -13 9 -14 9
-8 0z m52 -52 c10 8 14 8 14 0 0 -6 8 -11 18 -11 26 0 79 -71 67 -90 -4 -6 -2
-10 4 -10 6 0 8 -7 5 -15 -4 -8 -2 -15 2 -15 5 0 9 -13 9 -29 0 -16 -3 -27 -7
-24 -5 2 -4 -6 1 -19 4 -13 5 -32 1 -43 -4 -11 -4 -29 0 -40 3 -11 5 -38 3
-60 -4 -51 -4 -52 0 -97 2 -23 0 -38 -7 -38 -6 0 -5 -4 2 -9 15 -9 15 -20 0
-38 -6 -7 -6 -13 -1 -13 11 0 10 -140 -1 -158 -4 -6 -3 -12 1 -12 10 0 10 -61
0 -77 -4 -6 -3 -14 2 -18 10 -5 7 -36 -4 -55 -3 -6 -2 -10 2 -10 14 0 4 -204
-11 -229 -4 -6 -4 -16 -1 -21 3 -6 -1 -13 -9 -16 -9 -3 -13 -10 -10 -15 3 -5
-3 -12 -13 -16 -10 -4 -21 -11 -25 -17 -10 -14 -131 -12 -136 2 -2 7 -8 10
-13 6 -5 -3 -9 1 -9 10 0 8 -5 16 -10 18 -6 2 -12 13 -13 25 0 13 -6 24 -12
26 -9 4 -13 967 -3 1008 5 20 48 87 48 74 0 -5 4 -4 9 4 5 8 20 16 33 18 13 2
25 9 27 15 2 6 8 4 13 -6 8 -14 13 -15 24 -5z"/>
<path d="M3248 3259 c-10 -6 -18 -17 -18 -26 0 -9 3 -14 6 -10 8 8 33 -16 27
-25 -2 -5 3 -8 13 -8 13 0 14 -3 4 -15 -7 -8 -8 -15 -3 -15 5 0 9 -9 9 -20 0
-11 -4 -20 -9 -20 -5 0 -4 -7 3 -15 10 -12 10 -15 0 -15 -9 0 -9 -4 -2 -12 5
-7 6 -22 2 -33 -4 -11 -3 -28 2 -39 7 -14 7 -16 -2 -11 -9 6 -9 2 -1 -14 9
-16 9 -21 0 -21 -8 0 -8 -4 1 -15 9 -11 9 -15 1 -15 -7 0 -9 -5 -5 -12 11 -17
11 -58 1 -58 -4 0 -3 -9 3 -20 6 -11 7 -20 2 -20 -10 0 -8 -42 3 -59 3 -6 1
-11 -5 -11 -6 0 -8 -5 -4 -12 12 -19 12 -48 0 -48 -6 0 -6 -4 2 -12 7 -7 8
-17 1 -30 -7 -12 -6 -18 1 -18 8 0 8 -6 0 -20 -6 -11 -7 -20 -1 -20 5 0 6 -14
1 -34 -4 -19 -4 -40 1 -47 5 -8 3 -17 -4 -22 -9 -7 -9 -10 0 -14 9 -3 10 -10
3 -22 -5 -10 -6 -21 -3 -25 10 -10 11 -46 1 -46 -5 0 -4 -9 2 -20 6 -11 7 -20
1 -20 -5 0 -6 -14 -1 -35 5 -21 4 -35 -2 -35 -5 0 -6 -6 -2 -12 12 -19 12 -48
0 -48 -6 0 -6 -4 2 -12 7 -7 8 -17 1 -30 -7 -12 -6 -18 1 -18 8 0 8 -6 0 -20
-8 -14 -8 -20 0 -20 6 0 8 -5 3 -12 -4 -7 -8 -23 -9 -36 0 -13 -11 -30 -22
-38 -21 -15 -32 -41 -12 -29 6 3 10 -2 10 -12 0 -10 4 -14 8 -8 8 12 37 13 48
2 4 -4 12 -7 18 -7 6 0 4 5 -4 10 -12 8 -10 10 10 7 14 -1 31 -6 39 -11 10 -6
12 -5 7 2 -9 15 19 16 46 1 11 -6 18 -7 15 -2 -3 4 25 9 61 11 81 3 91 5 120
20 12 7 22 10 22 7 0 -6 5 -2 65 52 22 19 33 32 25 27 -12 -6 -12 -4 1 12 15
17 27 44 36 84 2 8 4 32 4 53 -1 28 3 36 12 31 9 -5 9 -4 0 7 -7 7 -13 23 -13
36 0 13 6 23 13 24 6 0 4 4 -7 8 -17 7 -17 8 -2 24 16 16 16 17 -1 17 -10 0
-14 4 -8 8 6 4 10 43 10 87 0 44 -4 83 -10 87 -6 5 -5 8 3 8 6 0 12 6 12 14 0
8 -6 17 -12 19 -7 3 -8 6 -3 6 7 1 10 28 8 72 -3 55 -1 69 9 63 10 -6 11 -4 1
7 -7 7 -13 23 -13 36 0 13 6 23 13 24 6 0 4 4 -7 8 -17 7 -17 8 -2 24 16 16
16 17 -1 17 -10 0 -14 4 -8 8 11 8 14 172 3 172 -3 0 -5 8 -4 18 3 17 -9 44
-32 74 -8 9 -11 22 -6 29 4 7 3 10 -3 6 -5 -3 -17 2 -26 11 -25 27 -45 41 -50
36 -2 -2 -10 2 -17 11 -7 8 -23 15 -36 15 -12 0 -25 4 -28 9 -3 5 -21 5 -41 1
-20 -4 -35 -4 -35 1 0 5 -5 9 -11 9 -5 0 -8 -4 -4 -9 3 -6 -6 -6 -24 -1 -21 6
-31 5 -35 -3 -3 -8 -5 -8 -5 1 -1 10 -6 10 -21 2 -14 -8 -20 -8 -20 0 0 8 -6
8 -20 0 -14 -8 -20 -8 -20 0 0 8 -6 8 -20 0 -15 -8 -20 -8 -20 2 0 10 -2 10
-9 -1 -5 -8 -10 -9 -12 -3 -3 7 -10 8 -21 1z m202 -38 c0 -4 17 -7 39 -5 21 1
50 -4 65 -11 14 -8 26 -11 26 -9 0 3 15 -9 33 -28 19 -18 32 -36 30 -40 -2 -4
1 -17 8 -29 12 -24 18 -204 7 -222 -4 -6 -4 -16 0 -21 8 -14 10 -86 2 -81 -9
5 -6 -27 3 -42 4 -6 3 -14 -3 -18 -6 -4 -7 -12 -3 -18 9 -15 11 -87 3 -82 -4
2 -5 -6 -4 -18 1 -12 3 -22 4 -22 1 0 2 -55 3 -122 1 -66 -1 -119 -4 -118 -3
2 -4 -6 -3 -18 1 -12 3 -22 4 -22 1 0 3 -19 4 -42 1 -23 -1 -40 -4 -38 -4 2
-7 -2 -7 -10 0 -8 4 -15 8 -15 4 0 -3 -26 -16 -57 -13 -32 -27 -58 -31 -58 -5
0 -18 -9 -30 -20 -13 -13 -34 -20 -55 -19 -19 1 -37 -4 -41 -10 -5 -7 -8 -6
-8 4 0 13 -1 13 -10 0 -5 -8 -10 -10 -10 -4 0 7 -11 9 -25 6 -15 -2 -25 0 -25
7 0 7 -4 10 -8 7 -11 -6 -9 45 3 63 5 9 4 12 -2 8 -5 -3 -9 10 -9 33 0 21 3
37 6 35 9 -5 6 33 -3 41 -12 12 -8 26 5 18 7 -5 8 -3 3 7 -13 20 -15 60 -3 53
7 -4 7 0 -1 13 -7 14 -7 24 2 33 9 10 9 11 -1 6 -13 -8 -13 19 1 42 5 6 4 12
-1 12 -13 0 -10 93 3 102 7 5 7 8 0 8 -6 0 -10 16 -11 35 0 19 3 32 7 30 4 -3
6 3 4 12 -1 10 -8 17 -15 15 -7 -1 -8 2 -3 10 4 7 8 20 8 28 0 8 4 21 8 28 5
6 4 12 0 12 -5 0 -9 11 -9 25 0 14 5 25 11 25 5 0 3 5 -5 10 -11 7 -11 10 -2
10 7 0 10 5 7 10 -4 6 -11 7 -17 4 -7 -5 -8 -2 -2 7 5 8 9 21 9 29 0 8 4 21 8
28 5 6 4 12 -2 12 -11 0 -9 39 4 59 5 9 4 12 -2 8 -5 -3 -9 10 -9 33 0 21 3
37 6 35 3 -2 6 5 6 15 0 10 -3 17 -7 14 -9 -5 -6 47 4 63 4 6 1 14 -5 16 -10
4 -10 8 1 15 9 7 10 11 2 17 -9 5 -9 11 1 23 11 13 11 14 -1 7 -11 -6 -13 -4
-8 9 4 10 7 27 7 37 0 11 4 18 9 14 5 -3 12 -1 16 5 8 12 25 13 25 1z"/>
<path d="M182 26 c2 -24 28 -32 28 -9 0 7 1 16 3 20 1 3 -6 7 -15 9 -13 1 -17
-4 -16 -20z"/>
<path d="M487 37 c-3 -9 -2 -19 3 -22 12 -7 30 2 30 16 0 6 -4 8 -9 5 -5 -4
-11 -1 -13 6 -3 8 -7 6 -11 -5z"/>
<path d="M413 16 c2 -6 12 -12 23 -13 10 -2 13 0 6 3 -6 3 -10 9 -8 13 3 4 -2
8 -10 8 -8 0 -13 -5 -11 -11z"/>
</g>
</svg>
